HIERARCHY
ROOT hip
{
  OFFSET 0.146333 93.2371 0.453234
  CHANNELS 6 Xposition Yposition Zposition Zrotation Xrotation Yrotation
  JOINT abdomen
  {
    OFFSET 0 7.2397 0
    CHANNELS 6 Xposition Yposition Zposition Zrotation Xrotation Yrotation
    JOINT chest
    {
      OFFSET 0 16.546 0
      CHANNELS 6 Xposition Yposition Zposition Zrotation Xrotation Yrotation
      JOINT neck
      {
        OFFSET 0 34.2149 0
        CHANNELS 6 Xposition Yposition Zposition Zrotation Xrotation Yrotation
        JOINT head
        {
          OFFSET 0 6.2923 0
          CHANNELS 6 Xposition Yposition Zposition Zrotation Xrotation Yrotation
          End Site
          {
            OFFSET 0 21.2161 0
          }
        }
      }
      JOINT lCollar
      {
        OFFSET 4.0639 26.6115 -1.1234
        CHANNELS 6 Xposition Yposition Zposition Zrotation Xrotation Yrotation
        JOINT lShldr
        {
          OFFSET 14.1772 0 0
          CHANNELS 6 Xposition Yposition Zposition Zrotation Xrotation Yrotation
          JOINT lForeArm
          {
            OFFSET 26.1234 0 0
            CHANNELS 6 Xposition Yposition Zposition Zrotation Xrotation Yrotation
            JOINT lHand
            {
              OFFSET 27.7188 0 0
              CHANNELS 6 Xposition Yposition Zposition Zrotation Xrotation Yrotation
              JOINT lThumb1
              {
                OFFSET 2.2979 -0.4685 1.8313
                CHANNELS 6 Xposition Yposition Zposition Zrotation Xrotation Yrotation
                JOINT lThumb2
                {
                  OFFSET 5.2953 0 0
                  CHANNELS 6 Xposition Yposition Zposition Zrotation Xrotation Yrotation
                  JOINT lThumb3
                  {
                    OFFSET 3.0181 0 0
                    CHANNELS 6 Xposition Yposition Zposition Zrotation Xrotation Yrotation
                    End Site
                    {
                      OFFSET 2.6294 0 0
                    }
                  }
                }
              }
              JOINT lIndex1
              {
                OFFSET 9.3793 0.2991 2.5924
                CHANNELS 6 Xposition Yposition Zposition Zrotation Xrotation Yrotation
                JOINT lIndex2
                {
                  OFFSET 4.3461 0 0
                  CHANNELS 6 Xposition Yposition Zposition Zrotation Xrotation Yrotation
                  JOINT lIndex3
                  {
                    OFFSET 2.1666 0 0
                    CHANNELS 6 Xposition Yposition Zposition Zrotation Xrotation Yrotation
                    End Site
                    {
                      OFFSET 2.2048 0 0
                    }
                  }
                }
              }
              JOINT lMid1
              {
                OFFSET 9.4769 0.8376 0.2947
                CHANNELS 6 Xposition Yposition Zposition Zrotation Xrotation Yrotation
                JOINT lMid2
                {
                  OFFSET 4.772 0 0
                  CHANNELS 6 Xposition Yposition Zposition Zrotation Xrotation Yrotation
                  JOINT lMid3
                  {
                    OFFSET 2.8722 0 0
                    CHANNELS 6 Xposition Yposition Zposition Zrotation Xrotation Yrotation
                    End Site
                    {
                      OFFSET 2.0959 0 0
                    }
                  }
                }
              }
              JOINT lRing1
              {
                OFFSET 8.6586 1.0176 -1.7016
                CHANNELS 6 Xposition Yposition Zposition Zrotation Xrotation Yrotation
                JOINT lRing2
                {
                  OFFSET 4.5461 0 0
                  CHANNELS 6 Xposition Yposition Zposition Zrotation Xrotation Yrotation
                  JOINT lRing3
                  {
                    OFFSET 2.506 0 0
                    CHANNELS 6 Xposition Yposition Zposition Zrotation Xrotation Yrotation
                    End Site
                    {
                      OFFSET 2.2023 0 0
                    }
                  }
                }
              }
              JOINT lPinky1
              {
                OFFSET 7.6901 0.6618 -3.9096
                CHANNELS 6 Xposition Yposition Zposition Zrotation Xrotation Yrotation
                JOINT lPinky2
                {
                  OFFSET 3.2119 0 0
                  CHANNELS 6 Xposition Yposition Zposition Zrotation Xrotation Yrotation
                  JOINT lPinky3
                  {
                    OFFSET 1.924 0 0
                    CHANNELS 6 Xposition Yposition Zposition Zrotation Xrotation Yrotation
                    End Site
                    {
                      OFFSET 1.7829 0 0
                    }
                  }
                }
              }
            }
          }
        }
      }
      JOINT rCollar
      {
        OFFSET -4.0677 26.6109 -1.1234
        CHANNELS 6 Xposition Yposition Zposition Zrotation Xrotation Yrotation
        JOINT rShldr
        {
          OFFSET -14.1772 0 0
          CHANNELS 6 Xposition Yposition Zposition Zrotation Xrotation Yrotation
          JOINT rForeArm
          {
            OFFSET -26.1234 0 0
            CHANNELS 6 Xposition Yposition Zposition Zrotation Xrotation Yrotation
            JOINT rHand
            {
              OFFSET -27.7188 0 0
              CHANNELS 6 Xposition Yposition Zposition Zrotation Xrotation Yrotation
              JOINT rThumb1
              {
                OFFSET -2.2979 -0.4684 1.8313
                CHANNELS 6 Xposition Yposition Zposition Zrotation Xrotation Yrotation
                JOINT rThumb2
                {
                  OFFSET -5.2953 0 0
                  CHANNELS 6 Xposition Yposition Zposition Zrotation Xrotation Yrotation
                  JOINT rThumb3
                  {
                    OFFSET -3.0181 0 0
                    CHANNELS 6 Xposition Yposition Zposition Zrotation Xrotation Yrotation
                    End Site
                    {
                      OFFSET -2.6294 0 0
                    }
                  }
                }
              }
              JOINT rIndex1
              {
                OFFSET -9.3793 0.2991 2.5924
                CHANNELS 6 Xposition Yposition Zposition Zrotation Xrotation Yrotation
                JOINT rIndex2
                {
                  OFFSET -4.3461 0 0
                  CHANNELS 6 Xposition Yposition Zposition Zrotation Xrotation Yrotation
                  JOINT rIndex3
                  {
                    OFFSET -2.1666 0 0
                    CHANNELS 6 Xposition Yposition Zposition Zrotation Xrotation Yrotation
                    End Site
                    {
                      OFFSET -2.2048 0 0
                    }
                  }
                }
              }
              JOINT rMid1
              {
                OFFSET -9.4769 0.8376 0.2947
                CHANNELS 6 Xposition Yposition Zposition Zrotation Xrotation Yrotation
                JOINT rMid2
                {
                  OFFSET -4.772 0 0
                  CHANNELS 6 Xposition Yposition Zposition Zrotation Xrotation Yrotation
                  JOINT rMid3
                  {
                    OFFSET -2.8722 0 0
                    CHANNELS 6 Xposition Yposition Zposition Zrotation Xrotation Yrotation
                    End Site
                    {
                      OFFSET -2.0959 0 0
                    }
                  }
                }
              }
              JOINT rRing1
              {
                OFFSET -8.6586 1.0176 -1.7016
                CHANNELS 6 Xposition Yposition Zposition Zrotation Xrotation Yrotation
                JOINT rRing2
                {
                  OFFSET -4.5461 0 0
                  CHANNELS 6 Xposition Yposition Zposition Zrotation Xrotation Yrotation
                  JOINT rRing3
                  {
                    OFFSET -2.506 0 0
                    CHANNELS 6 Xposition Yposition Zposition Zrotation Xrotation Yrotation
                    End Site
                    {
                      OFFSET -2.2023 0 0
                    }
                  }
                }
              }
              JOINT rPinky1
              {
                OFFSET -7.6901 0.6618 -3.9096
                CHANNELS 6 Xposition Yposition Zposition Zrotation Xrotation Yrotation
                JOINT rPinky2
                {
                  OFFSET -3.2119 0 0
                  CHANNELS 6 Xposition Yposition Zposition Zrotation Xrotation Yrotation
                  JOINT rPinky3
                  {
                    OFFSET -1.924 0 0
                    CHANNELS 6 Xposition Yposition Zposition Zrotation Xrotation Yrotation
                    End Site
                    {
                      OFFSET -1.7829 0 0
                    }
                  }
                }
              }
            }
          }
        }
      }
    }
  }
  JOINT lThigh
  {
    OFFSET 8.7379 -0.0029 0.0005
    CHANNELS 6 Xposition Yposition Zposition Zrotation Xrotation Yrotation
    JOINT lShin
    {
      OFFSET 0 -46.6676 0
      CHANNELS 6 Xposition Yposition Zposition Zrotation Xrotation Yrotation
      JOINT lFoot
      {
        OFFSET 0 -40.1476 0
        CHANNELS 6 Xposition Yposition Zposition Zrotation Xrotation Yrotation
        JOINT lToes
        {
          OFFSET 0 -8.8846 14.2294
          CHANNELS 6 Xposition Yposition Zposition Zrotation Xrotation Yrotation
          End Site
          {
            OFFSET 0 0 6.296
          }
        }
      }
    }
  }
  JOINT rThigh
  {
    OFFSET -8.7379 0.0029 -0.0005
    CHANNELS 6 Xposition Yposition Zposition Zrotation Xrotation Yrotation
    JOINT rShin
    {
      OFFSET 0 -46.6676 0
      CHANNELS 6 Xposition Yposition Zposition Zrotation Xrotation Yrotation
      JOINT rFoot
      {
        OFFSET 0 -40.1476 0
        CHANNELS 6 Xposition Yposition Zposition Zrotation Xrotation Yrotation
        JOINT rToes
        {
          OFFSET 0 -8.8846 14.2294
          CHANNELS 6 Xposition Yposition Zposition Zrotation Xrotation Yrotation
          End Site
          {
            OFFSET 0 0 6.296
          }
        }
      }
    }
  }
}
MOTION
Frames:	4
Frame Time:	0.0333333
0.146333 93.2371 0.453234 0.27151 -4.4472 -41.3617 8.88178e-16 7.2397 0 -0.727487 2.33068 -0.211914 -8.88178e-16 16.546 0 -1.51384 6.52307 -0.376633 4.44089e-16 34.2149 -3.55271e-15 -16.7001 25.191 29.4243 0 6.2923 1.42109e-14 -0.494792 -33.9804 13.1326 4.0639 26.6115 -1.1234 3.27844 -23.4475 12.8974 14.1772 0 -7.10543e-15 -81.664 23.3367 0.671564 26.1234 7.10543e-15 0 -10.5199 3.42663 -69.7712 27.7188 0 -1.42109e-14 154.471 -68.4714 129.712 2.2979 -0.4685 1.8313 49.6567 69.9459 -82.0286 5.2953 3.55271e-15 -1.42109e-14 -4.14233 2.82014 2.79661 3.0181 3.55271e-15 0 12.4883 -9.15638e-05 -6.18368e-06 9.3793 0.2991 2.5924 -27.268 2.18444 9.7014 4.3461 1.42109e-14 1.77636e-15 -80.6365 -0.415591 -9.99177 2.1666 0 7.10543e-15 -2.16839 5.53003e-06 8.91943e-06 9.4769 0.8376 0.2947 -57.6812 -3.82927 2.19364 4.772 -1.42109e-14 0 -60.5266 -1.6404 -1.06345 2.8722 -7.10543e-15 0 3.9574 0.071098 0.399402 8.6586 1.0176 -1.7016 -68.473 -4.94891 0.0678304 4.5461 -1.42109e-14 -7.10543e-15 -58.3695 2.44538 0.494855 2.506 0 -3.55271e-15 6.7605 2.91429e-06 -9.94264e-05 7.6901 0.6618 -3.9096 -84.2305 -13.4409 -12.0655 3.2119 -3.55271e-15 0 -55.9428 1.86811 8.95917 1.924 0 -3.55271e-15 4.4131 2.86699e-06 -1.2307e-06 -4.0677 26.6109 -1.1234 -6.7014 9.8401 -2.13194 -14.1772 -2.84217e-14 7.10543e-15 44.2101 37.1631 23.7509 -26.1234 0 0 0.792355 -2.27845 115.472 -27.7188 0 0 10.2938 -40.3244 -15.6646 -2.2979 -0.4684 1.8313 -63.9149 79.6346 108.21 -5.2953 2.84217e-14 3.55271e-15 1.18126 22.7979 -12.6817 -3.0181 0 0 -12.4883 -0.000106538 0.000112048 -9.3793 0.2991 2.5924 -0.409283 0.506646 0.271745 -4.3461 8.88178e-16 0 22.2057 -1.84293 -1.65545 -2.1666 3.55271e-15 0 2.16819 1.35258e-05 1.86504e-06 -9.4769 0.8376 0.2947 44.0271 2.33438 -1.19283 -4.772 3.55271e-15 1.42109e-14 110.919 -9.22249 0.990089 -2.8722 0 -1.42109e-14 -3.9575 0.0709988 -0.399407 -8.6586 1.0176 -1.7016 50.2109 -7.56095 1.18866 -4.5461 0 0 96.5184 7.12103 1.66571 -2.506 3.55271e-15 0 -6.7605 4.15105e-06 -8.03668e-07 -7.6901 0.6618 -3.9096 66.9689 -14.2019 8.45609 -3.2119 -7.10543e-15 0 80.2853 2.24055 -7.21549 -1.924 4.44089e-16 0 -4.413 1.84178e-06 -9.57931e-06 8.7379 -0.0029 0.0005 14.6064 -11.0419 52.35 0 -46.6676 7.10543e-15 2.27165 30.2253 6.55677 8.88178e-16 -40.1476 -3.55271e-15 -2.24332 -7.17546 8.61517 0 -8.8846 14.2294 0.0001 0 -9.54166e-15 -8.7379 0.0029 -0.0005 -12.1528 -3.58068 -4.03996 -3.55271e-15 -46.6676 -1.77636e-15 -2.88105 30.9483 1.21535 -3.55271e-15 -40.1476 -3.55271e-15 11.1651 -23.0226 -22.3217 0 -8.8846 14.2294 5.51738e-33 -4.96962e-17 6.36111e-15 
0.0832144 93.2371 0.489455 0.314163 -4.46145 -41.3273 -8.88178e-16 7.2397 -8.88178e-16 -0.739374 2.34568 -0.222921 0 16.546 -4.44089e-16 -1.53684 6.55325 -0.396568 4.44089e-16 34.2149 0 -16.6784 25.1491 29.4147 -4.44089e-16 6.2923 0 -0.525873 -34.0251 13.1565 4.0639 26.6115 -1.1234 3.27547 -23.44 12.8574 14.1772 0 0 -81.2931 23.7438 0.191331 26.1234 0 0 -10.7199 3.44549 -69.3254 27.7188 0 0 156.403 -68.2608 131.417 2.2979 -0.4685 1.8313 49.7449 69.7924 -81.8861 5.2953 0 -1.42109e-14 -4.14193 2.81936 2.79799 3.0181 0 -1.42109e-14 12.4883 -9.15638e-05 -6.18368e-06 9.3793 0.2991 2.5924 -27.2968 2.37658 9.7327 4.3461 -1.42109e-14 0 -80.705 -0.419859 -10.0483 2.1666 0 3.55271e-15 -2.16839 5.53003e-06 8.91943e-06 9.4769 0.8376 0.2947 -58.0862 -3.63266 2.21191 4.772 -1.42109e-14 -3.55271e-15 -60.4586 -1.43385 -1.15273 2.8722 0 3.55271e-15 3.9574 0.071098 0.399402 8.6586 1.0176 -1.7016 -68.7657 -4.82956 0.0819942 4.5461 7.10543e-15 -3.55271e-15 -58.3837 2.44606 0.494585 2.506 0 0 6.7605 2.91429e-06 -9.94264e-05 7.6901 0.6618 -3.9096 -84.7819 -13.3179 -12.1137 3.2119 0 0 -55.4645 1.91715 8.91321 1.924 0 -7.10543e-15 4.4131 2.86699e-06 -1.2307e-06 -4.0677 26.6109 -1.1234 -6.8558 9.79174 -2.14828 -14.1772 0 -7.10543e-15 44.5422 37.2098 23.6717 -26.1234 0 0 0.667262 -2.40968 115.392 -27.7188 0 0 10.3761 -40.1214 -15.725 -2.2979 -0.4684 1.8313 -63.5597 79.5295 107.944 -5.2953 0 0 1.27902 22.8015 -12.7482 -3.0181 0 0 -12.4883 -0.000106538 0.000112048 -9.3793 0.2991 2.5924 -0.259292 0.514692 0.411968 -4.3461 8.88178e-16 0 22.2705 -1.84728 -1.66384 -2.1666 0 0 2.16819 1.35258e-05 1.86504e-06 -9.4769 0.8376 0.2947 44.0952 2.48667 -0.987574 -4.772 0 -1.42109e-14 110.985 -9.24908 0.927305 -2.8722 -3.55271e-15 0 -3.9575 0.0709988 -0.399407 -8.6586 1.0176 -1.7016 50.1845 -7.34155 1.38432 -4.5461 1.42109e-14 1.42109e-14 96.4544 7.11583 1.62889 -2.506 1.77636e-15 1.42109e-14 -6.7605 4.15105e-06 -8.03668e-07 -7.6901 0.6618 -3.9096 66.7284 -13.9669 8.61245 -3.2119 0 0 80.3321 2.2545 -7.25872 -1.924 -8.88178e-16 0 -4.413 1.84178e-06 -9.57931e-06 8.7379 -0.0029 0.0005 14.6373 -11.0452 52.429 0 -46.6676 0 2.28988 30.3499 6.54031 0 -40.1476 0 -2.28983 -7.24928 8.50573 0 -8.8846 14.2294 0.0001 4.96962e-17 6.36111e-15 -8.7379 0.0029 -0.0005 -12.1761 -3.53485 -4.05228 -3.55271e-15 -46.6676 1.77636e-15 -2.87911 30.9336 1.21457 -3.55271e-15 -40.1476 -1.77636e-15 11.1564 -23.0372 -22.3281 0 -8.8846 14.2294 0 0 -0 
0.0140313 93.2399 0.531174 0.356492 -4.48195 -41.2845 -8.88178e-16 7.2397 0 -0.757365 2.37221 -0.238452 0 16.546 0 -1.57186 6.60658 -0.424331 2.22045e-16 34.2149 0 -16.6365 25.0879 29.3986 -4.44089e-16 6.2923 0 -0.56322 -34.0831 13.1892 4.0639 26.6115 -1.1234 3.27242 -23.4029 12.8283 14.1772 0 0 -80.9945 24.0003 -0.270067 26.1234 -7.10543e-15 -3.55271e-15 -10.9259 3.47999 -68.9057 27.7188 -7.10543e-15 0 157.971 -68.147 132.836 2.2979 -0.4685 1.8313 49.8713 69.6079 -81.7829 5.2953 -3.55271e-15 0 -4.14154 2.81855 2.7994 3.0181 -3.55271e-15 -1.42109e-14 12.4883 -9.15638e-05 -6.18368e-06 9.3793 0.2991 2.5924 -27.3258 2.56869 9.76408 4.3461 1.42109e-14 0 -80.7734 -0.424133 -10.1049 2.1666 0 -1.06581e-14 -2.16839 5.53003e-06 8.91943e-06 9.4769 0.8376 0.2947 -58.4912 -3.43601 2.23008 4.772 1.42109e-14 3.55271e-15 -60.3901 -1.22732 -1.24201 2.8722 0 3.55271e-15 3.9574 0.071098 0.399402 8.6586 1.0176 -1.7016 -69.0586 -4.70991 0.0960798 4.5461 0 3.55271e-15 -58.3979 2.44674 0.494329 2.506 1.42109e-14 0 6.7605 2.91429e-06 -9.94264e-05 7.6901 0.6618 -3.9096 -85.3328 -13.1938 -12.1609 3.2119 0 0 -54.986 1.96543 8.8668 1.924 0 0 4.4131 2.86699e-06 -1.2307e-06 -4.0677 26.6109 -1.1234 -6.98692 9.73296 -2.17866 -14.1772 2.84217e-14 0 44.792 37.2785 23.6417 -26.1234 0 0 0.54174 -2.54043 115.316 -27.7188 0 0 10.4147 -39.9564 -15.7828 -2.2979 -0.4684 1.8313 -63.2105 79.4241 107.684 -5.2953 0 0 1.3768 22.805 -12.8148 -3.0181 0 0 -12.4883 -0.000106538 0.000112048 -9.3793 0.2991 2.5924 -0.109389 0.522753 0.552215 -4.3461 -2.66454e-15 0 22.3353 -1.85167 -1.67222 -2.1666 -3.55271e-15 0 2.16819 1.35258e-05 1.86504e-06 -9.4769 0.8376 0.2947 44.1621 2.63895 -0.782276 -4.772 -3.55271e-15 1.42109e-14 111.052 -9.27565 0.864539 -2.8722 0 1.42109e-14 -3.9575 0.0709988 -0.399407 -8.6586 1.0176 -1.7016 50.1566 -7.12215 1.5798 -4.5461 -7.10543e-15 1.42109e-14 96.3904 7.11065 1.5921 -2.506 8.88178e-16 -1.42109e-14 -6.7605 4.15105e-06 -8.03668e-07 -7.6901 0.6618 -3.9096 66.4866 -13.732 8.76852 -3.2119 1.42109e-14 -1.42109e-14 80.379 2.26841 -7.30194 -1.924 4.44089e-16 -1.42109e-14 -4.413 1.84178e-06 -9.57931e-06 8.7379 -0.0029 0.0005 14.6428 -11.0524 52.4104 2.66454e-15 -46.6676 0 2.30622 30.4589 6.52429 2.66454e-15 -40.1476 3.55271e-15 -2.35125 -7.31572 8.48295 0 -8.8846 14.2294 0.0001 -4.96962e-17 -3.18055e-15 -8.7379 0.0029 -0.0005 -12.2134 -3.468 -4.11089 0 -46.6676 1.77636e-15 -2.87463 30.9005 1.21142 3.55271e-15 -40.1476 3.55271e-15 11.1516 -23.0396 -22.2976 0 -8.8846 14.2294 1.98785e-16 -7.45443e-17 -0 
-0.0567655 93.2437 0.577496 0.392305 -4.50125 -41.2292 0 7.2397 8.88178e-16 -0.780549 2.3912 -0.259761 -8.88178e-16 16.546 2.22045e-16 -1.61936 6.64493 -0.462641 -6.66134e-16 34.2149 1.77636e-15 -16.5629 25.0088 29.3587 -6.66134e-16 6.2923 -1.42109e-14 -0.586789 -34.184 13.2316 4.0639 26.6115 -1.1234 3.2629 -23.334 12.8266 14.1772 -2.84217e-14 0 -80.8434 24.0228 -0.698635 26.1234 0 0 -11.1268 3.51793 -68.4479 27.7188 7.10543e-15 0 159.04 -68.2084 133.886 2.2979 -0.4685 1.8313 50.033 69.3935 -81.7161 5.2953 3.55271e-15 0 -4.14118 2.81774 2.80079 3.0181 0 0 12.4883 -9.15638e-05 -6.18368e-06 9.3793 0.2991 2.5924 -27.3551 2.76076 9.79562 4.3461 -1.42109e-14 1.77636e-15 -80.8419 -0.428372 -10.1615 2.1666 0 0 -2.16839 5.53003e-06 8.91943e-06 9.4769 0.8376 0.2947 -58.8965 -3.23934 2.24815 4.772 0 3.55271e-15 -60.3209 -1.02078 -1.33133 2.8722 7.10543e-15 0 3.9574 0.071098 0.399402 8.6586 1.0176 -1.7016 -69.3515 -4.58998 0.110104 4.5461 1.42109e-14 3.55271e-15 -58.412 2.44741 0.494079 2.506 0 0 6.7605 2.91429e-06 -9.94264e-05 7.6901 0.6618 -3.9096 -85.8833 -13.0685 -12.2071 3.2119 3.55271e-15 7.10543e-15 -54.5074 2.01294 8.8199 1.924 0 0 4.4131 2.86699e-06 -1.2307e-06 -4.0677 26.6109 -1.1234 -7.0885 9.66668 -2.22733 -14.1772 2.84217e-14 0 44.9437 37.3363 23.7062 -26.1234 0 0 0.416597 -2.67138 115.185 -27.7188 -1.42109e-14 0 10.483 -39.8802 -15.8091 -2.2979 -0.4684 1.8313 -62.8676 79.3184 107.431 -5.2953 1.42109e-14 0 1.47459 22.8085 -12.8814 -3.0181 -1.42109e-14 0 -12.4883 -0.000106538 0.000112048 -9.3793 0.2991 2.5924 0.0404644 0.530816 0.692453 -4.3461 -8.88178e-16 1.42109e-14 22.4 -1.85606 -1.68059 -2.1666 3.55271e-15 1.42109e-14 2.16819 1.35258e-05 1.86504e-06 -9.4769 0.8376 0.2947 44.2279 2.79119 -0.576931 -4.772 0 -1.42109e-14 111.118 -9.30221 0.801788 -2.8722 3.55271e-15 -1.42109e-14 -3.9575 0.0709988 -0.399407 -8.6586 1.0176 -1.7016 50.1272 -6.90276 1.77512 -4.5461 7.10543e-15 1.42109e-14 96.3264 7.10543 1.55532 -2.506 -1.77636e-15 2.84217e-14 -6.7605 4.15105e-06 -8.03668e-07 -7.6901 0.6618 -3.9096 66.2432 -13.4971 8.92432 -3.2119 -7.10543e-15 -1.42109e-14 80.4259 2.28235 -7.3452 -1.924 8.88178e-16 1.42109e-14 -4.413 1.84178e-06 -9.57931e-06 8.7379 -0.0029 0.0005 14.6385 -11.0713 52.3099 0 -46.6676 7.10543e-15 2.32283 30.5694 6.50768 -8.88178e-16 -40.1476 -3.55271e-15 -2.42319 -7.38434 8.52297 0 -8.8846 14.2294 0.0001 0 3.18055e-15 -8.7379 0.0029 -0.0005 -12.2555 -3.3837 -4.21367 -3.55271e-15 -46.6676 -1.77636e-15 -2.86928 30.8615 1.20733 -3.55271e-15 -40.1476 3.55271e-15 11.149 -23.0752 -22.236 3.55271e-15 -8.8846 14.2294 -1.98785e-16 0 3.18055e-15 
